<?xml version="1.0" standalone="no"?>
<!DOCTYPE svg PUBLIC "-//W3C//DTD SVG 20010904//EN"
 "http://www.w3.org/TR/2001/REC-SVG-20010904/DTD/svg10.dtd">
<svg version="1.0" xmlns="http://www.w3.org/2000/svg"
 width="256.000000pt" height="256.000000pt" viewBox="0 0 256.000000 256.000000"
 preserveAspectRatio="xMidYMid meet">
<metadata>
Created by potrace 1.10, written by Peter Selinger 2001-2011
</metadata>
<g transform="translate(0.000000,256.000000) scale(0.100000,-0.100000)"
fill="#000000" stroke="none">
<path d="M1148 2459 c-10 -5 -58 -69 -107 -142 -50 -73 -126 -179 -171 -237
-252 -326 -312 -413 -383 -554 -92 -185 -126 -330 -127 -536 0 -149 12 -213
58 -328 112 -274 341 -477 620 -548 89 -23 111 -25 267 -21 137 3 185 8 249
26 154 43 294 129 406 248 83 87 133 163 180 272 60 139 73 217 67 400 -4 138
-8 168 -37 261 -52 171 -125 313 -258 500 -29 41 -64 89 -78 105 -54 66 -251
332 -328 442 -66 96 -86 118 -106 118 -40 0 -50 -35 -50 -188 0 -99 4 -148 15
-173 17 -41 96 -155 209 -304 161 -211 195 -257 233 -321 170 -280 198 -542
85 -783 -109 -231 -334 -366 -606 -366 -132 0 -222 20 -323 71 -137 69 -255
201 -311 349 -66 170 -55 376 28 571 55 130 107 209 311 476 58 76 131 176
162 222 l57 84 0 171 c0 195 -8 217 -62 185z m42 -167 l0 -168 -75 -107 c-77
-111 -141 -197 -258 -348 -193 -251 -277 -455 -277 -678 0 -127 22 -219 81
-331 78 -151 222 -274 382 -327 75 -24 96 -27 237 -27 145 -1 161 1 243 28
192 63 336 200 418 397 41 101 52 172 47 301 -4 86 -12 133 -33 198 -56 173
-111 267 -308 523 -71 92 -160 213 -198 269 l-69 102 0 169 c0 93 4 167 9 165
5 -1 49 -64 99 -138 51 -74 146 -205 212 -290 240 -311 317 -428 392 -601 64
-150 80 -223 85 -399 4 -120 1 -170 -11 -223 -51 -217 -192 -423 -371 -543
-97 -64 -165 -93 -289 -124 -80 -20 -108 -22 -255 -18 -147 4 -176 8 -251 33
-100 32 -144 53 -225 107 -195 130 -341 359 -384 602 -35 197 25 476 151 700
64 113 175 275 276 400 98 122 263 351 326 454 14 23 31 42 36 42 6 0 10 -64
10 -168z"/>
</g>
</svg>
